<?xml version="1.0" standalone="no"?><!DOCTYPE svg PUBLIC "-//W3C//DTD SVG 1.1//EN" "http://www.w3.org/Graphics/SVG/1.1/DTD/svg11.dtd"><svg t="1532923344041" class="icon" style="" viewBox="0 0 1024 1024" version="1.1" xmlns="http://www.w3.org/2000/svg" p-id="1637" xmlns:xlink="http://www.w3.org/1999/xlink" width="200" height="200"><defs><style type="text/css"></style></defs><path d="M809.472 307.0464 214.528 307.0464c-14.6432 0-26.4704-11.8784-26.4704-26.4704 0-14.6432 11.8784-26.4704 26.4704-26.4704L809.472 254.1056c14.6432 0 26.4704 11.8784 26.4704 26.4704C835.9424 295.168 824.064 307.0464 809.472 307.0464L809.472 307.0464zM809.472 307.0464" p-id="1638"></path><path d="M469.8624 760.2176 469.8624 760.2176l-255.2832 0c-14.6432 0-26.4704-11.8784-26.4704-26.4704 0-14.6432 11.8784-26.4704 26.4704-26.4704l0 0 255.2832 0c14.6432 0 26.4704 11.8784 26.4704 26.4704C496.3328 748.3392 484.4544 760.2176 469.8624 760.2176L469.8624 760.2176zM469.8624 760.2176" p-id="1639"></path><path d="M809.472 533.6064 214.528 533.6064c-14.6432 0-26.4704-11.8784-26.4704-26.4704 0-14.6432 11.8784-26.4704 26.4704-26.4704L809.472 480.6656c14.6432 0 26.4704 11.8784 26.4704 26.4704C835.9424 521.7792 824.064 533.6064 809.472 533.6064L809.472 533.6064zM809.472 533.6064" p-id="1640"></path><path d="M749.1584 1007.8208l-53.0944 0c-14.6432 0-26.4704-11.8784-26.4704-26.4704s11.8784-26.4704 26.4704-26.4704l52.8896 0c0.9216-0.1024 13.4144-2.1504 46.7456-27.5456 23.04-17.6128 50.6368-42.2912 77.568-69.5296 26.5216-26.7776 51.0976-54.5792 69.12-78.2336 24.9344-32.7168 28.2624-45.4656 28.5696-47.0528L970.9568 226.304c0-86.6304-70.5024-157.1328-157.1328-157.1328L210.0736 69.1712c-86.6304 0-157.1328 70.5024-157.1328 157.1328l0 571.392c0 86.6816 70.5024 157.1328 157.1328 157.1328L467.456 954.8288c14.6432 0 26.4704 11.8784 26.4704 26.4704s-11.8784 26.4704-26.4704 26.4704L210.0736 1007.7696C94.2592 1007.8208 0 913.5616 0 797.696L0 226.304c0-115.8656 94.2592-210.0736 210.0736-210.0736l603.8016 0C929.7408 16.1792 1024 110.4384 1024 226.304l0 506.6752c0 12.0832-4.1472 31.5392-36.5568 74.8032-19.3536 25.9072-46.08 56.4224-75.1616 85.8624-29.5936 30.0032-60.0576 57.2416-85.7088 76.6976C782.2848 1003.9296 761.1904 1007.8208 749.1584 1007.8208L749.1584 1007.8208zM749.1584 1007.8208" p-id="1641"></path><path d="M692.1728 1002.3424c-14.6432 0-26.4704-11.8784-26.4704-26.4704l0-133.2736c0-103.8336 84.48-188.3136 188.3136-188.3136l117.0944 0c14.6432 0 26.4704 11.8784 26.4704 26.4704 0 14.6432-11.8784 26.4704-26.4704 26.4704L854.016 707.2256c-74.6496 0-135.3728 60.7232-135.3728 135.3728l0 133.2736C718.6944 990.464 706.816 1002.3424 692.1728 1002.3424L692.1728 1002.3424zM692.1728 1002.3424" p-id="1642"></path></svg>