<?xml version="1.0" standalone="no"?><!DOCTYPE svg PUBLIC "-//W3C//DTD SVG 1.1//EN" "http://www.w3.org/Graphics/SVG/1.1/DTD/svg11.dtd"><svg t="1531221413720" class="icon" style="" viewBox="0 0 1024 1024" version="1.1" xmlns="http://www.w3.org/2000/svg" p-id="1657" xmlns:xlink="http://www.w3.org/1999/xlink" width="200" height="200"><defs><style type="text/css"></style></defs><path d="M699.016533 698.538667c-26.077867-25.224533-77.1072-67.515733-125.3376-67.549867-16.110933 0-30.993067 4.642133-43.246933 13.482667l-30.754133 22.254933c-48.162133-10.24-97.553067-52.224-132.676267-113.083733-35.191467-60.859733-46.865067-124.586667-31.709867-171.4176l34.645333-15.5648c44.168533-19.8656 58.504533-76.936533 40.516267-160.836267-14.506667-67.515733-63.761067-195.140267-146.7392-195.140267-7.9872 0-16.042667 1.262933-23.688533 3.754667L181.3504 33.416533C131.072 49.732267 93.218133 91.921067 82.5344 143.598933 51.063467 295.2192 90.5216 481.757867 190.7712 655.394133c100.317867 173.602133 242.244267 301.021867 389.2224 349.4912 14.9504 4.881067 30.446933 7.406933 46.148267 7.406933 36.522667 0 71.611733-13.448533 98.679467-37.888l45.738667-41.301333c16.247467-14.6432 39.901867-48.605867 15.701333-111.547733C771.652267 783.530667 738.269867 736.392533 699.016533 698.538667zM737.211733 896.136533l-45.738667 41.301333c-17.92 16.1792-41.198933 25.088-65.3312 25.088-10.376533 0-20.650667-1.6384-30.5152-4.9152-135.645867-44.714667-267.502933-163.9424-361.7792-327.133867C139.639467 467.319467 102.1952 293.512533 131.2768 153.7024 138.376533 119.5008 163.396267 91.5456 196.676267 80.759467l58.641067-19.0464C258.116267 60.859733 260.881067 60.416 263.714133 60.416c38.7072 0 81.988267 80.554667 98.133333 155.8528 11.844267 55.125333 6.9632 96.324267-12.219733 105.028267l-52.667733 23.620267-1.3312 2.7648c-29.252267 61.508267-18.432 149.981867 28.2624 230.843733 46.728533 80.930133 117.930667 134.485333 185.856 139.8784l3.072 0.238933 46.762667-33.826133c3.754667-2.730667 8.328533-4.061867 14.097067-4.061867 46.250667 0.034133 139.400533 88.951467 166.126933 158.583467C746.939733 857.770667 752.264533 882.619733 737.211733 896.136533zM906.376533 272.2816c-54.715733-107.8272-148.138667-187.869867-263.133867-225.416533-2.4576-0.8192-5.085867-1.262933-7.714133-1.262933-10.786133 0-20.2752 6.894933-23.620267 17.169067-4.232533 13.0048 2.901333 27.067733 15.940267 31.3344 102.331733 33.416533 185.514667 104.686933 234.154667 200.635733 48.776533 95.982933 57.173333 205.175467 23.7568 307.5072-4.266667 13.038933 2.901333 27.101867 15.9744 31.3344 2.423467 0.8192 5.0176 1.262933 7.68 1.262933 10.786133 0 20.343467-6.894933 23.688533-17.169067C970.615467 502.749867 961.092267 380.1088 906.376533 272.2816zM596.650667 189.713067c-2.491733-0.785067-5.085867-1.2288-7.748267-1.2288-10.786133 0-20.343467 6.894933-23.620267 17.169067-4.266667 13.0048 2.901333 27.101867 15.906133 31.3344 64.1024 20.8896 116.189867 65.604267 146.773333 125.883733 30.583467 60.279467 35.976533 128.7168 14.9504 192.750933-4.232533 13.038933 2.935467 27.101867 15.9744 31.402667 2.525867 0.785067 5.12 1.194667 7.748267 1.194667 10.786133 0 20.309333-6.894933 23.620267-17.134933 25.019733-76.6976 18.670933-158.6176-17.92-230.7072C735.675733 268.253867 673.28 214.766933 596.650667 189.713067zM534.528 379.8016c53.725867 17.578667 83.080533 75.502933 65.536 129.194667-4.232533 13.0048 2.935467 27.067733 15.9744 31.368533 2.491733 0.785067 5.085867 1.2288 7.68 1.2288 10.820267 0 20.343467-6.929067 23.688533-17.169067 26.077867-79.735467-17.681067-165.819733-97.416533-191.8976-2.4576-0.8192-5.085867-1.262933-7.748267-1.262933-10.786133 0-20.2752 6.894933-23.6544 17.134933C514.3552 361.506133 521.489067 375.569067 534.528 379.8016z" p-id="1658"></path></svg>