<?xml version="1.0" standalone="no"?><!DOCTYPE svg PUBLIC "-//W3C//DTD SVG 1.1//EN" "http://www.w3.org/Graphics/SVG/1.1/DTD/svg11.dtd"><svg t="1532924405708" class="icon" style="" viewBox="0 0 1024 1024" version="1.1" xmlns="http://www.w3.org/2000/svg" p-id="5740" xmlns:xlink="http://www.w3.org/1999/xlink" width="200" height="200"><defs><style type="text/css"></style></defs><path d="M269.322423 96.161107l132.086317 170.244382 1.957585 2.690272c6.359848 8.56098 10.762111 17.6111 12.963243 27.640524 3.179412 10.273994 3.668553 21.769816 2.201132 33.266661-1.956561 11.495822-5.381567 22.258956-11.252275 31.798217l-1.467421 1.956561c-5.626137 8.316409-12.719696 16.143679-21.036106 22.503527l-2.446725 1.467421-64.331167 46.720068c-3.668553 9.53926-8.56098 29.841655 9.05012 55.035454 28.374234 40.60479 59.683311 78.273714 94.417393 113.007797l0 0 0 0c35.223223 34.733059 72.646554 66.533322 113.007797 94.906533 25.438369 17.612123 45.740764 12.474103 55.280024 8.316409l47.942919-66.043159c6.847965-9.784854 14.920828-17.121959 24.704658-22.992667 9.53926-5.626137 20.302395-9.295714 31.55467-11.007705l1.467421 0c11.252275-1.711991 22.01541-0.733711 32.04381 2.201132l2.200108 0.490164c9.785877 2.690272 19.079544 7.582699 27.641547 14.431687l0-0.24457 170.244382 132.086317 2.690272 2.446725c8.562003 7.093559 15.409968 15.654538 20.545942 25.438369 5.382591 10.517541 8.80555 22.258956 9.295714 34.978652 0.490164 12.475126-1.467421 24.216541-5.869684 35.467793l0 0c-4.403287 11.007705-11.742439 21.280676-21.036106 29.841655-11.008728 10.272971-24.215518 20.791535-40.60479 30.819936l-1.956561 0.978281c-15.655562 8.80555-34.001395 17.612123-55.280024 24.950252-93.928253 30.819936-193.727213 25.438369-289.61305-6.604418-101.265358-33.754778-198.374046-97.107665-277.870612-176.60423-79.985706-79.741136-143.338592-176.360683-176.60423-278.115182-32.28838-95.884814-37.913495-195.683774-6.848988-289.122887 7.338129-22.503527 16.632819-41.583071 26.173103-57.726749l0 0c10.028401-16.143679 20.302395-29.841655 30.575366-40.60479 8.80555-9.29469 19.079544-16.143679 29.841655-20.791535l2.934842-0.733711c10.273994-4.157693 21.036106-5.626137 32.532951-5.136997 12.964266 0.48914 24.216541 3.668553 34.978652 9.05012l1.956561 0.978281L269.322423 96.161107 269.322423 96.161107zM347.106997 308.96684 347.106997 308.96684 215.02068 138.722458l0 0c-0.978281-1.956561-2.934842-3.179412-4.157693-3.914146l-0.733711-0.48914c-1.956561-0.978281-4.157693-1.467421-6.359848-1.467421-1.956561 0-4.402263 0-5.870708 0.48914l-0.978281 0.48914c-1.956561 0.733711-3.668553 1.956561-5.381567 3.425006-7.338129 8.316409-14.676257 17.6111-22.014386 29.352515l0 0c-7.338129 12.719696-14.187117 26.90579-19.568684 44.028772-26.41665 78.273714-21.280676 163.395394 6.359848 246.072395 29.841655 90.503247 87.079264 178.317245 159.971411 250.963799 72.892147 72.647577 160.215982 130.129756 250.964822 160.215982 82.677001 27.640524 167.799704 32.531927 246.072395 6.359848 16.632819-5.381567 30.331819-11.985986 42.561351-18.833951l0.979304-0.978281c12.229532-7.338129 22.013363-14.920828 29.596062-22.01541 1.713015-1.467421 3.179412-3.425006 3.669576-5.136997l0.490164 0 0-0.24457c0.488117-1.956561 0.733711-4.157693 0.733711-6.359848-0.245593-2.934842-0.733711-4.891404-1.713015-6.847965l0 0c-0.490164-1.468444-1.467421-2.691295-3.179412-3.914146l-1.222851-0.978281L715.237309 676.852582l0 0 0 0c-1.222851-1.222851-3.179412-1.956561-4.64888-2.445702l-0.733711-0.24457c-1.713015-0.24457-3.669576-0.733711-5.626137-0.24457l-0.490164 0c-1.956561 0.24457-4.403287 0.978281-5.869684 1.711991l0 0c-1.467421 0.979304-2.933819 2.691295-4.403287 4.158716l-51.856042 71.424726c-2.934842 4.402263-6.847965 7.826246-11.251252 10.762111 0 0-61.151755 43.296085-135.022183-8.804527-44.51689-30.819936-85.61082-65.064878-122.301464-102.001115l0 0c-37.424354-37.423331-71.424726-78.028121-102.489232-122.302487-51.611471-74.114998-8.56098-134.776589-8.56098-135.02116l0.48914 0c1.956561-4.157693 5.381567-7.338129 8.80555-10.028401l70.445422-51.366901 2.446725-1.956561c1.467421-0.978281 2.690272-2.201132 3.913123-3.425006l0.490164-0.978281c0.978281-1.467421 1.467421-3.668553 1.956561-5.870708 0-2.201132 0-4.157693-0.48914-5.870708s-0.978281-2.934842-1.957585-4.403287L347.106997 308.96684 347.106997 308.96684zM567.25086 235.096413 567.25086 235.096413l198.128453 0-94.41637 94.661963c-8.316409 8.071839-8.316409 21.280676 0 29.352515s21.279652 8.071839 29.352515 0L829.956074 228.981135l0.979304-0.733711 0.488117-0.48914 0-0.48914 0.490164-0.48914c0.733711-0.490164 1.222851-1.957585 1.713015-2.446725l0 0 0.490164-0.733711 0-0.733711c0.490164-0.733711 1.222851-1.467421 1.222851-2.445702l0-0.490164 0.488117-1.711991 0-1.957585 0-1.222851 0 0 0-0.979304 0-1.467421 0-1.711991-0.488117-1.711991 0-0.48914c0-0.979304-0.733711-1.711991-1.222851-2.690272l0-0.48914-0.490164-0.733711c-0.490164-0.978281-0.979304-1.467421-1.713015-2.446725l-0.490164-0.48914 0-0.733711-0.488117-0.24457-0.979304-0.978281L700.315458 69.989027c-8.072863-8.071839-21.036106-8.071839-29.352515 0s-8.316409 21.280676 0 29.352515l94.41637 94.417393L567.25086 193.758935c-11.251252 0-20.790512 9.53926-20.790512 20.791535C546.460348 226.290863 555.999608 235.096413 567.25086 235.096413L567.25086 235.096413zM269.322423 96.161107 269.322423 96.161107l-0.24457 0L269.322423 96.161107l-0.24457 0L269.322423 96.161107 269.322423 96.161107z" p-id="5741"></path></svg>