<?xml version="1.0" standalone="no"?><!DOCTYPE svg PUBLIC "-//W3C//DTD SVG 1.1//EN" "http://www.w3.org/Graphics/SVG/1.1/DTD/svg11.dtd"><svg t="1532923161978" class="icon" style="" viewBox="0 0 1024 1024" version="1.1" xmlns="http://www.w3.org/2000/svg" p-id="2441" xmlns:xlink="http://www.w3.org/1999/xlink" width="200" height="200"><defs><style type="text/css"></style></defs><path d="M873.489 673.377c-15.633-9.283-35.747-4.163-44.975 11.391-66.741 112.014-189.13 181.584-319.363 181.584-173.765 0-320.054-119.881-360.445-281.296l47.644 47.615c12.801 12.803 33.558 12.803 46.363 0 12.751-12.803 12.751-33.558-0.054-46.363l-114.652-114.626c-9.338-9.39-23.364-12.164-35.693-7.095-12.27 5.069-20.221 17.021-20.221 30.275 0 240.989 196.068 437.057 437.057 437.057 153.226 0 297.169-81.841 375.702-213.593 9.231-15.552 4.163-35.665-11.363-44.948v0z" p-id="2442"></path><path d="M509.153 57.805c-168.484 0-319.095 94.115-392.988 245.603-7.95 16.271-1.173 35.906 15.099 43.829 16.113 7.95 35.906 1.255 43.803-15.073 62.849-128.789 190.839-208.79 334.087-208.79 173.767 0 320.003 119.881 360.445 281.271l-58.208-58.18c-12.801-12.803-33.507-12.803-46.309 0s-12.801 33.556 0 46.363l125.215 125.215c6.242 6.268 14.619 9.604 23.155 9.604 4.212 0 8.483-0.827 12.538-2.507 12.27-5.069 20.222-17.021 20.222-30.275-0.001-240.991-196.068-437.057-437.058-437.057v0z" p-id="2443"></path></svg>